
<svg version="1.0" xmlns="http://www.w3.org/2000/svg"
 width="160.000000pt" height="164.000000pt" viewBox="0 0 160.000000 164.000000"
 preserveAspectRatio="xMidYMid meet">

<g transform="translate(0.000000,164.000000) scale(0.100000,-0.100000)"
fill="#000000" stroke="none">
<path d="M655 1505 c-211 -46 -389 -185 -487 -378 -92 -184 -92 -440 0 -624
119 -236 337 -377 602 -390 137 -7 226 12 350 73 79 39 110 62 181 134 73 72
94 101 132 180 103 213 102 420 -1 630 -38 79 -61 110 -132 181 -73 73 -101
94 -180 132 -52 25 -127 52 -167 61 -86 19 -215 19 -298 1z m203 -64 c8 0 10
-6 6 -13 -6 -10 -4 -10 7 0 18 17 29 15 30 -5 1 -16 2 -16 6 -2 4 18 15 17 94
-7 39 -12 46 -18 42 -34 -6 -23 -4 -23 -37 -10 -14 5 -26 17 -26 27 0 15 -2
16 -10 3 -9 -13 -11 -13 -20 0 -7 11 -10 11 -10 2 0 -7 -4 -11 -9 -7 -18 11
-137 13 -206 4 -38 -5 -79 -10 -90 -12 -11 -1 -21 5 -23 14 -2 11 7 18 29 23
17 3 35 3 40 0 5 -3 9 -1 9 4 0 5 11 8 25 7 14 -2 27 0 29 4 4 5 68 7 114 2z
m-265 -51 c4 -16 -2 -24 -26 -34 -23 -9 -34 -10 -39 -2 -13 19 -9 26 25 40 17
8 33 15 33 15 1 1 4 -8 7 -19z m567 -60 c0 -5 -6 -11 -12 -14 -7 -3 -3 -3 10
0 15 4 22 1 22 -10 0 -10 6 -13 15 -10 11 5 13 2 9 -10 -5 -12 -2 -15 12 -9
14 5 16 3 11 -11 -5 -14 -3 -17 8 -13 14 6 90 -71 80 -81 -3 -3 3 -11 13 -18
13 -10 14 -15 5 -25 -10 -10 -15 -9 -28 1 -8 7 -15 18 -15 25 0 7 -7 16 -16
19 -10 4 -14 12 -10 23 4 10 4 14 0 11 -4 -4 -34 17 -67 46 -33 30 -80 64
-103 76 -38 18 -43 24 -34 40 10 18 12 18 55 -7 25 -13 45 -28 45 -33z m-640
7 c0 -7 -74 -51 -82 -49 -4 1 -12 -8 -18 -19 -7 -12 -18 -18 -26 -15 -9 3 -12
2 -9 -5 4 -6 -5 -22 -19 -37 -14 -15 -34 -38 -45 -52 -16 -20 -22 -23 -33 -12
-11 11 -10 14 2 22 8 5 11 10 7 10 -4 0 -2 6 5 14 7 8 16 12 19 10 4 -2 6 4 5
14 -1 12 6 16 24 14 20 -2 22 0 10 8 -12 8 -8 16 25 45 43 37 54 42 56 23 1
-7 4 -3 7 10 4 13 11 22 15 20 5 -2 13 5 18 15 9 15 12 15 25 3 8 -8 14 -17
14 -19z m376 -18 c131 -24 264 -112 335 -222 60 -92 83 -175 82 -287 -1 -150
-55 -273 -162 -372 -328 -301 -861 -68 -861 377 0 136 44 245 141 350 72 76
144 119 239 144 86 23 142 25 226 10z m-606 -201 c0 -5 -12 -34 -26 -64 -14
-30 -27 -62 -28 -70 -1 -9 -9 -20 -17 -25 -8 -5 -9 -9 -2 -9 6 0 10 -8 8 -17
-2 -10 -4 -33 -4 -50 -1 -27 -5 -33 -22 -33 -20 0 -21 3 -14 48 4 26 7 53 8
60 0 6 4 12 9 12 5 0 6 5 3 10 -3 6 -3 16 2 23 4 6 8 17 8 22 0 6 11 33 24 62
16 34 28 50 37 46 8 -3 14 -9 14 -15z m1073 -12 c3 -8 -2 -16 -14 -19 -21 -6
-22 -5 -13 17 8 20 20 21 27 2z m21 -60 c-1 -9 3 -16 8 -16 6 0 8 -7 4 -15 -3
-8 -1 -15 4 -15 6 0 8 -10 6 -22 -2 -13 1 -29 7 -36 8 -10 7 -16 -4 -23 -12
-7 -11 -9 3 -9 15 0 16 -12 15 -92 -2 -78 -5 -93 -19 -96 -15 -3 -17 8 -17 85
0 48 -2 99 -4 113 -8 45 -29 115 -38 127 -7 7 -5 13 3 16 20 8 33 1 32 -17z
m-1166 -251 c0 -28 -4 -35 -19 -35 -15 0 -19 7 -19 35 0 28 4 35 19 35 15 0
19 -7 19 -35z m9 -147 c-8 -5 -6 -8 7 -8 11 0 17 -3 13 -6 -3 -4 5 -29 19 -56
14 -28 23 -52 20 -55 -3 -3 6 -14 19 -25 14 -11 25 -24 25 -29 0 -6 14 -23 31
-39 30 -27 32 -50 6 -50 -11 0 -47 34 -47 45 0 2 -11 16 -25 31 -14 15 -25 33
-25 40 0 8 -4 14 -9 14 -8 0 -22 32 -25 55 -1 6 -5 13 -10 17 -6 4 -4 14 5 24
12 16 12 17 -3 11 -13 -5 -19 0 -23 16 -12 57 -13 92 -2 105 9 12 14 5 24 -34
9 -38 9 -50 0 -56z m1190 37 c0 -17 0 -17 -21 -9 -22 8 -20 24 2 24 10 0 19
-7 19 -15z m-19 -48 c2 -11 -3 -17 -16 -17 -15 0 -19 5 -15 20 6 24 26 21 31
-3z m-21 -35 c10 -6 10 -15 1 -40 -7 -18 -16 -32 -20 -32 -4 0 -8 -6 -8 -12 0
-7 -8 -25 -18 -40 -13 -20 -22 -24 -32 -18 -13 8 -10 18 15 65 16 30 33 55 37
55 4 0 5 7 2 15 -7 16 4 19 23 7z m-88 -156 c9 -10 5 -20 -18 -45 -28 -30 -49
-42 -36 -21 3 6 2 10 -4 10 -5 0 -11 -6 -14 -12 -2 -7 -8 -10 -12 -6 -6 6 61
88 71 88 1 0 7 -6 13 -14z m-864 -114 c0 -18 -20 -15 -23 4 -3 10 1 15 10 12
7 -3 13 -10 13 -16z m775 4 c0 -8 -4 -17 -9 -21 -12 -7 -24 12 -16 25 9 15 25
12 25 -4z m-665 -26 c11 -13 25 -18 37 -15 11 4 27 -3 43 -19 13 -13 27 -20
30 -15 10 15 47 11 67 -8 11 -9 18 -11 18 -5 0 16 53 15 68 0 9 -9 12 -9 12 1
0 10 12 12 45 9 24 -3 45 -2 47 1 2 4 32 15 67 24 48 14 66 15 77 6 20 -17 17
-47 -6 -59 -11 -6 -18 -15 -15 -21 4 -5 1 -10 -4 -10 -13 -2 -22 -4 -41 -11
-39 -15 -61 -16 -67 -2 -5 13 -7 13 -17 0 -6 -8 -26 -17 -44 -21 -28 -6 -34
-4 -39 13 -3 14 -11 18 -26 14 -12 -3 -25 -11 -30 -18 -11 -18 -40 -5 -32 14
5 13 2 12 -14 -2 -22 -20 -68 -15 -77 8 -4 10 -17 12 -44 9 -31 -4 -41 -2 -46
11 -3 9 -17 16 -32 16 -27 0 -62 25 -62 44 0 21 31 56 49 56 10 0 26 -9 36
-20z m600 -15 c22 -19 36 -35 30 -36 -5 -1 -21 -3 -34 -4 -13 -1 -28 -10 -33
-19 -17 -30 -28 -17 -28 32 0 73 7 76 65 27z"/>
<path d="M577 1080 c-8 -19 -51 -122 -96 -229 -45 -106 -80 -195 -77 -198 2
-3 26 5 51 16 26 12 51 21 56 21 5 0 10 -62 11 -137 l3 -138 65 -33 65 -33 3
171 c2 126 6 170 15 170 6 0 32 -9 56 -20 24 -11 46 -18 49 -15 4 4 -35 99
-174 430 l-12 29 -15 -34z"/>
<path d="M900 884 c-52 -124 -96 -229 -98 -234 -2 -5 22 2 53 15 30 14 60 25
65 25 6 0 10 -67 10 -170 0 -129 3 -170 13 -170 6 0 37 13 67 28 l55 28 3 142
c1 78 7 142 11 142 5 0 31 -9 57 -20 26 -11 49 -19 51 -17 4 4 -175 437 -186
449 -3 3 -49 -95 -101 -218z"/>
<path d="M231 1034 c0 -11 3 -14 6 -6 3 7 2 16 -1 19 -3 4 -6 -2 -5 -13z"/>
<path d="M355 400 c3 -5 8 -10 11 -10 2 0 4 5 4 10 0 6 -5 10 -11 10 -5 0 -7
-4 -4 -10z"/>
<path d="M496 293 c-11 -12 -6 -33 8 -33 8 0 16 -6 18 -12 3 -7 7 -3 10 8 5
21 -23 50 -36 37z"/>
<path d="M571 256 c-12 -14 -5 -26 16 -26 15 0 18 26 4 34 -5 3 -14 0 -20 -8z"/>
<path d="M1010 260 c0 -5 5 -10 10 -10 6 0 10 5 10 10 0 6 -4 10 -10 10 -5 0
-10 -4 -10 -10z"/>
<path d="M948 243 c6 -2 18 -2 25 0 6 3 1 5 -13 5 -14 0 -19 -2 -12 -5z"/>
<path d="M662 223 c5 -25 28 -28 28 -4 0 12 -6 21 -16 21 -9 0 -14 -7 -12 -17z"/>
<path d="M760 219 c0 -5 5 -7 10 -4 6 3 10 8 10 11 0 2 -4 4 -10 4 -5 0 -10
-5 -10 -11z"/>
<path d="M844 214 c3 -9 6 -18 6 -20 0 -3 5 -2 10 1 16 10 12 35 -6 35 -11 0
-14 -5 -10 -16z"/>
<path d="M965 220 c-19 -8 -19 -9 3 -9 12 -1 22 4 22 9 0 6 -1 10 -2 9 -2 0
-12 -4 -23 -9z"/>
</g>
</svg>
